<svg width="77" height="85" viewBox="0 0 77 85" fill="none" xmlns="http://www.w3.org/2000/svg">
<g filter="url(#filter0_dd_0_134)">
<rect x="21" y="37" width="38" height="38" rx="4" fill="#EA4C89"/>
</g>
<path d="M41.998 61.7187C41.3809 61.9766 40.709 62.125 39.998 62.125C38.7559 62.125 37.623 61.6797 36.7324 60.9531C36.7324 60.9531 36.8027 61 36.8496 61.0391C37.834 58.8984 40.873 57.8359 40.873 57.8359C40.8809 57.8359 40.8965 57.8281 40.9043 57.8281C41.623 59.7031 41.9199 61.2656 41.998 61.7187ZM40.5527 56.9766C40.4902 57 40.4199 57.0156 40.3496 57.0391C40.3496 57.0391 37.584 57.9297 36.1855 60.4219C35.373 59.5156 34.873 58.3125 34.873 57C34.873 56.9453 34.873 56.8906 34.8809 56.8359C34.9668 56.8359 37.498 56.8984 40.1387 56.1094C40.2871 56.3984 40.4277 56.6875 40.5527 56.9766ZM39.7168 55.3203C37.2559 55.9687 35.1152 55.9453 34.9824 55.9453C35.3184 54.3594 36.3809 53.0391 37.8105 52.3672C37.8809 52.4609 38.8262 53.7422 39.7168 55.3203ZM45.0605 57.8125C44.8262 59.2422 44.0137 60.4766 42.8652 61.25C42.8105 60.9453 42.5371 59.4375 41.8652 57.5859C43.5215 57.3281 44.9512 57.7812 45.0605 57.8125ZM38.7715 52.0234C38.7637 52.0234 38.7559 52.0312 38.7559 52.0312C38.7637 52.0234 38.7637 52.0234 38.7715 52.0234ZM43.3809 53.1562C43.3652 53.1797 42.6387 54.2891 40.709 55.0078C39.834 53.3984 38.8652 52.125 38.7871 52.0234C39.1777 51.9297 39.584 51.875 39.998 51.875C41.2949 51.875 42.4824 52.3594 43.3809 53.1562ZM45.123 56.9453C45.0605 56.9375 43.3184 56.5547 41.5527 56.7812C41.5137 56.6953 41.4824 56.6016 41.4434 56.5156C41.334 56.2656 41.2168 56.0156 41.0996 55.7734C43.123 54.9453 43.9434 53.7578 43.959 53.7422C44.6777 54.6172 45.1074 55.7344 45.123 56.9453ZM45.998 57C45.998 53.6875 43.3105 51 39.998 51C36.6855 51 33.998 53.6875 33.998 57C33.998 60.3125 36.6855 63 39.998 63C43.3105 63 45.998 60.3125 45.998 57Z" fill="white"/>
<defs>
<filter id="filter0_dd_0_134" x="15" y="34" width="50" height="51" filterUnits="userSpaceOnUse" color-interpolation-filters="sRGB">
<feFlood flood-opacity="0" result="BackgroundImageFix"/>
<feColorMatrix in="SourceAlpha" type="matrix" values="0 0 0 0 0 0 0 0 0 0 0 0 0 0 0 0 0 0 127 0" result="hardAlpha"/>
<feOffset dy="1"/>
<feGaussianBlur stdDeviation="2"/>
<feColorMatrix type="matrix" values="0 0 0 0 0 0 0 0 0 0 0 0 0 0 0 0 0 0 0.08 0"/>
<feBlend mode="normal" in2="BackgroundImageFix" result="effect1_dropShadow_0_134"/>
<feColorMatrix in="SourceAlpha" type="matrix" values="0 0 0 0 0 0 0 0 0 0 0 0 0 0 0 0 0 0 127 0" result="hardAlpha"/>
<feOffset dy="4"/>
<feGaussianBlur stdDeviation="3"/>
<feColorMatrix type="matrix" values="0 0 0 0 0.196078 0 0 0 0 0.196078 0 0 0 0 0.364706 0 0 0 0.11 0"/>
<feBlend mode="normal" in2="effect1_dropShadow_0_134" result="effect2_dropShadow_0_134"/>
<feBlend mode="normal" in="SourceGraphic" in2="effect2_dropShadow_0_134" result="shape"/>
</filter>
</defs>
</svg>
