<svg width="105" height="85" viewBox="0 0 105 85" fill="none" xmlns="http://www.w3.org/2000/svg">
<g filter="url(#filter0_dd_0_123)">
<rect x="35" y="37" width="38" height="38" rx="4" fill="#222222"/>
</g>
<path d="M53.998 51C50.6855 51 47.998 53.6875 47.998 57C47.998 59.6484 49.7168 61.8984 52.0996 62.6953C52.4043 62.75 52.5137 62.5625 52.5137 62.4063C52.5137 62.2578 52.5059 61.7891 52.5059 61.2891C52.5059 61.2891 50.834 61.6484 50.4824 60.5781C50.4824 60.5781 50.209 59.8828 49.8184 59.7031C49.8184 59.7031 49.2715 59.3281 49.8574 59.3359C49.8574 59.3359 50.4512 59.3828 50.7793 59.9531C51.3027 60.875 52.1777 60.6094 52.5215 60.4531C52.5762 60.0703 52.7324 59.8047 52.9043 59.6484C51.5684 59.5 50.1699 58.9844 50.1699 56.6875C50.1699 56.0312 50.4043 55.5 50.7871 55.0781C50.7246 54.9219 50.5215 54.3125 50.8496 53.4844C51.3496 53.3281 52.498 54.1016 52.498 54.1016C52.9746 53.9687 53.4902 53.8984 53.998 53.8984C54.5059 53.8984 55.0215 53.9687 55.498 54.1016C55.498 54.1016 56.6465 53.3281 57.1465 53.4844C57.4746 54.3125 57.2715 54.9219 57.209 55.0781C57.5918 55.5 57.8262 56.0312 57.8262 56.6875C57.8262 58.9922 56.4199 59.5 55.084 59.6484C55.3027 59.8359 55.4902 60.1953 55.4902 60.7578C55.4902 61.5625 55.4824 62.2109 55.4824 62.4063C55.4824 62.5625 55.5918 62.75 55.8965 62.6953C58.2793 61.8984 59.998 59.6484 59.998 57C59.998 53.6875 57.3105 51 53.998 51ZM50.2715 59.6172C50.2559 59.6484 50.209 59.6562 50.1699 59.6328C50.123 59.6094 50.0996 59.5703 50.1152 59.5391C50.1309 59.5156 50.1699 59.5078 50.2168 59.5234C50.2637 59.5469 50.2871 59.5859 50.2715 59.6172ZM50.5137 59.8828C50.4824 59.9141 50.4277 59.8984 50.3887 59.8594C50.3496 59.8125 50.3418 59.7578 50.373 59.7344C50.4043 59.7031 50.459 59.7187 50.498 59.7578C50.5371 59.8047 50.5449 59.8594 50.5137 59.8828ZM50.748 60.2344C50.7168 60.2578 50.6543 60.2344 50.6152 60.1797C50.5762 60.125 50.5762 60.0625 50.6152 60.0391C50.6543 60.0078 50.7168 60.0312 50.748 60.0859C50.7871 60.1406 50.7871 60.2031 50.748 60.2344ZM51.0762 60.5625C51.0449 60.6016 50.9746 60.5937 50.9199 60.5391C50.8652 60.4922 50.8496 60.4219 50.8887 60.3906C50.9199 60.3516 50.9902 60.3594 51.0449 60.4141C51.0918 60.4609 51.1074 60.5312 51.0762 60.5625ZM51.5215 60.7578C51.5059 60.8047 51.4355 60.8281 51.373 60.8047C51.3027 60.7891 51.2559 60.7344 51.2715 60.6875C51.2871 60.6406 51.3574 60.6172 51.4199 60.6328C51.4902 60.6562 51.5371 60.7109 51.5215 60.7578ZM52.0137 60.7969C52.0137 60.8437 51.959 60.8828 51.8887 60.8828C51.8105 60.8906 51.7559 60.8516 51.7559 60.7969C51.7559 60.75 51.8105 60.7109 51.8809 60.7109C51.9512 60.7031 52.0137 60.7422 52.0137 60.7969ZM52.4668 60.7187C52.4746 60.7656 52.4277 60.8125 52.3574 60.8281C52.2871 60.8437 52.2246 60.8125 52.2168 60.7656C52.209 60.7109 52.2559 60.6641 52.3262 60.6484C52.3965 60.6406 52.459 60.6719 52.4668 60.7187Z" fill="white"/>
<defs>
<filter id="filter0_dd_0_123" x="29" y="34" width="50" height="51" filterUnits="userSpaceOnUse" color-interpolation-filters="sRGB">
<feFlood flood-opacity="0" result="BackgroundImageFix"/>
<feColorMatrix in="SourceAlpha" type="matrix" values="0 0 0 0 0 0 0 0 0 0 0 0 0 0 0 0 0 0 127 0" result="hardAlpha"/>
<feOffset dy="1"/>
<feGaussianBlur stdDeviation="2"/>
<feColorMatrix type="matrix" values="0 0 0 0 0 0 0 0 0 0 0 0 0 0 0 0 0 0 0.08 0"/>
<feBlend mode="normal" in2="BackgroundImageFix" result="effect1_dropShadow_0_123"/>
<feColorMatrix in="SourceAlpha" type="matrix" values="0 0 0 0 0 0 0 0 0 0 0 0 0 0 0 0 0 0 127 0" result="hardAlpha"/>
<feOffset dy="4"/>
<feGaussianBlur stdDeviation="3"/>
<feColorMatrix type="matrix" values="0 0 0 0 0.196078 0 0 0 0 0.196078 0 0 0 0 0.364706 0 0 0 0.11 0"/>
<feBlend mode="normal" in2="effect1_dropShadow_0_123" result="effect2_dropShadow_0_123"/>
<feBlend mode="normal" in="SourceGraphic" in2="effect2_dropShadow_0_123" result="shape"/>
</filter>
</defs>
</svg>
