<svg width="111" height="55" viewBox="0 0 111 55" fill="none" xmlns="http://www.w3.org/2000/svg">
<g filter="url(#filter0_dd_0_203)">
<rect x="6" y="2" width="99" height="43" rx="4" fill="white"/>
</g>
<path d="M35.374 29V19.0059H36.5361V27.9473H40.9453V29H35.374ZM49.3434 25.2471C49.3434 26.4684 49.0357 27.4232 48.4205 28.1113C47.8053 28.7949 46.9553 29.1367 45.8707 29.1367C45.2008 29.1367 44.6061 28.9795 44.0865 28.665C43.567 28.3506 43.166 27.8994 42.8834 27.3115C42.6008 26.7236 42.4596 26.0355 42.4596 25.2471C42.4596 24.0257 42.7649 23.0755 43.3756 22.3965C43.9863 21.7129 44.8339 21.3711 45.9186 21.3711C46.9667 21.3711 47.7984 21.7197 48.4137 22.417C49.0335 23.1143 49.3434 24.0576 49.3434 25.2471ZM43.6354 25.2471C43.6354 26.2041 43.8268 26.9333 44.2096 27.4346C44.5924 27.9359 45.1552 28.1865 45.898 28.1865C46.6409 28.1865 47.2037 27.9382 47.5865 27.4414C47.9739 26.9401 48.1676 26.2087 48.1676 25.2471C48.1676 24.2946 47.9739 23.5723 47.5865 23.0801C47.2037 22.5833 46.6363 22.335 45.8844 22.335C45.1415 22.335 44.581 22.5788 44.2027 23.0664C43.8245 23.554 43.6354 24.2809 43.6354 25.2471ZM57.8713 21.5078V22.2256L56.4836 22.3896C56.6112 22.5492 56.7251 22.7588 56.8254 23.0186C56.9257 23.2738 56.9758 23.5632 56.9758 23.8867C56.9758 24.6204 56.7251 25.2061 56.2238 25.6436C55.7225 26.0811 55.0344 26.2998 54.1594 26.2998C53.9361 26.2998 53.7264 26.2816 53.5305 26.2451C53.0474 26.5003 52.8059 26.8216 52.8059 27.209C52.8059 27.4141 52.8902 27.5667 53.0588 27.667C53.2274 27.7627 53.5168 27.8105 53.927 27.8105H55.2531C56.0643 27.8105 56.6864 27.9814 57.1193 28.3232C57.5568 28.665 57.7756 29.1618 57.7756 29.8135C57.7756 30.6429 57.4429 31.2741 56.7775 31.707C56.1122 32.1445 55.1415 32.3633 53.8654 32.3633C52.8856 32.3633 52.1291 32.181 51.5959 31.8164C51.0673 31.4518 50.8029 30.9368 50.8029 30.2715C50.8029 29.8158 50.9488 29.4215 51.2404 29.0889C51.5321 28.7562 51.9423 28.5306 52.4709 28.4121C52.2795 28.3255 52.1177 28.1911 51.9855 28.0088C51.8579 27.8265 51.7941 27.6146 51.7941 27.373C51.7941 27.0996 51.8671 26.8604 52.0129 26.6553C52.1587 26.4502 52.3889 26.252 52.7033 26.0605C52.3159 25.901 51.9992 25.6299 51.7531 25.2471C51.5116 24.8643 51.3908 24.4268 51.3908 23.9346C51.3908 23.1143 51.6369 22.4831 52.1291 22.041C52.6213 21.5944 53.3186 21.3711 54.2209 21.3711C54.6128 21.3711 54.966 21.4167 55.2805 21.5078H57.8713ZM51.8967 30.2578C51.8967 30.6634 52.0676 30.971 52.4094 31.1807C52.7512 31.3903 53.2411 31.4951 53.8791 31.4951C54.8316 31.4951 55.5357 31.3516 55.9914 31.0645C56.4517 30.7819 56.6818 30.3968 56.6818 29.9092C56.6818 29.5036 56.5565 29.221 56.3059 29.0615C56.0552 28.9066 55.5835 28.8291 54.8908 28.8291H53.5305C53.0155 28.8291 52.6145 28.9521 52.3273 29.1982C52.0402 29.4443 51.8967 29.7975 51.8967 30.2578ZM52.5119 23.9072C52.5119 24.4313 52.66 24.8278 52.9562 25.0967C53.2525 25.3656 53.6649 25.5 54.1936 25.5C55.301 25.5 55.8547 24.9622 55.8547 23.8867C55.8547 22.7611 55.2941 22.1982 54.173 22.1982C53.6398 22.1982 53.2297 22.3418 52.9426 22.6289C52.6555 22.916 52.5119 23.3421 52.5119 23.9072ZM60.9441 29H59.8094V21.5078H60.9441V29ZM59.7137 19.4775C59.7137 19.2178 59.7775 19.0286 59.9051 18.9102C60.0327 18.7871 60.1922 18.7256 60.3836 18.7256C60.5659 18.7256 60.7231 18.7871 60.8553 18.9102C60.9874 19.0332 61.0535 19.2223 61.0535 19.4775C61.0535 19.7327 60.9874 19.9242 60.8553 20.0518C60.7231 20.1748 60.5659 20.2363 60.3836 20.2363C60.1922 20.2363 60.0327 20.1748 59.9051 20.0518C59.7775 19.9242 59.7137 19.7327 59.7137 19.4775ZM68.8773 29V24.1533C68.8773 23.5426 68.7383 23.0869 68.4604 22.7861C68.1824 22.4854 67.7471 22.335 67.1547 22.335C66.3708 22.335 65.7966 22.5469 65.432 22.9707C65.0674 23.3945 64.8852 24.0941 64.8852 25.0693V29H63.7504V21.5078H64.6732L64.8578 22.5332H64.9125C65.1449 22.1641 65.4708 21.8792 65.89 21.6787C66.3093 21.4736 66.7764 21.3711 67.2914 21.3711C68.1938 21.3711 68.8728 21.5898 69.3285 22.0273C69.7842 22.4603 70.0121 23.1553 70.0121 24.1123V29H68.8773Z" fill="#5E72E4"/>
<defs>
<filter id="filter0_dd_0_203" x="0" y="0" width="111" height="55" filterUnits="userSpaceOnUse" color-interpolation-filters="sRGB">
<feFlood flood-opacity="0" result="BackgroundImageFix"/>
<feColorMatrix in="SourceAlpha" type="matrix" values="0 0 0 0 0 0 0 0 0 0 0 0 0 0 0 0 0 0 127 0" result="hardAlpha"/>
<feOffset dy="1"/>
<feGaussianBlur stdDeviation="1.5"/>
<feColorMatrix type="matrix" values="0 0 0 0 0 0 0 0 0 0 0 0 0 0 0 0 0 0 0.08 0"/>
<feBlend mode="normal" in2="BackgroundImageFix" result="effect1_dropShadow_0_203"/>
<feColorMatrix in="SourceAlpha" type="matrix" values="0 0 0 0 0 0 0 0 0 0 0 0 0 0 0 0 0 0 127 0" result="hardAlpha"/>
<feOffset dy="4"/>
<feGaussianBlur stdDeviation="3"/>
<feColorMatrix type="matrix" values="0 0 0 0 0.196078 0 0 0 0 0.196078 0 0 0 0 0.364706 0 0 0 0.11 0"/>
<feBlend mode="normal" in2="effect1_dropShadow_0_203" result="effect2_dropShadow_0_203"/>
<feBlend mode="normal" in="SourceGraphic" in2="effect2_dropShadow_0_203" result="shape"/>
</filter>
</defs>
</svg>
